<svg width="32" height="32" viewBox="0 0 32 32" fill="none" xmlns="http://www.w3.org/2000/svg">
<g clip-path="url(#clip0_2389_1005)">
<circle cx="16" cy="16" r="16" fill="white"/>
<g clip-path="url(#clip1_2389_1005)">
<path d="M25.81 6.04297L17.2925 12.4192L18.8676 8.65733L25.81 6.04297Z" fill="#8432D5" stroke="#8432D5" stroke-width="0.1" stroke-linecap="round" stroke-linejoin="round"/>
<path d="M6.14688 6.04297L14.5959 12.4796L13.0979 8.65733L6.14688 6.04297ZM22.7453 20.8231L20.4768 24.3262L25.3305 25.6722L26.7259 20.9008L22.7453 20.8231ZM5.24805 20.9008L6.63482 25.6722L11.4885 24.3262L9.22003 20.8231L5.24805 20.9008Z" fill="#8432D5" stroke="#8432D5" stroke-width="0.1" stroke-linecap="round" stroke-linejoin="round"/>
<path d="M11.2148 14.904L9.8623 16.9661L14.6818 17.1819L14.5106 11.9618L11.2148 14.904ZM20.7425 14.904L17.4039 11.9014L17.2927 17.1819L22.1035 16.9661L20.7425 14.904ZM11.4888 24.326L14.3821 22.9024L11.8825 20.9351L11.4888 24.326ZM17.5751 22.9024L20.4771 24.326L20.0748 20.9351L17.5751 22.9024Z" fill="#8432D5" stroke="#8432D5" stroke-width="0.1" stroke-linecap="round" stroke-linejoin="round"/>
<path d="M20.4771 24.326L17.5751 22.9023L17.8063 24.8092L17.7806 25.6116L20.4771 24.326ZM11.4888 24.326L14.1853 25.6116L14.1681 24.8092L14.3822 22.9023L11.4888 24.326Z" fill="#D7C1B3" stroke="#D7C1B3" stroke-width="0.1" stroke-linecap="round" stroke-linejoin="round"/>
<path d="M11.4994 24.3599L11.9103 20.8568L9.23096 20.9345L11.4994 24.3599ZM20.0769 20.8568L20.4878 24.3599L22.7562 20.9345L20.0769 20.8568ZM22.1142 17L17.3033 17.2157L17.7485 19.7093L18.7607 19.39L20.171 18.9931L22.1142 17ZM11.8247 18.9931L13.2607 19.39L14.2387 19.7093L14.6924 17.2157L9.87298 17L11.8247 18.9931Z" fill="#5E1BA1" stroke="#5E1BA1" stroke-width="0.1" stroke-linecap="round" stroke-linejoin="round"/>
<path d="M14.228 19.6761L11.814 18.96L13.5175 18.1748L14.228 19.6761ZM17.7291 19.6761L18.4396 18.1748L20.1517 18.96L17.7291 19.6761Z" fill="#61D605"/>
<path d="M9.8623 16.9668L11.8825 20.9358L11.8141 18.9599L9.8623 16.9668ZM20.1604 18.9599L20.0748 20.9358L22.1035 16.9668L20.1604 18.9599ZM14.6818 17.1825L14.2281 19.6761L14.793 22.6183L14.9214 18.7442L14.6818 17.1825ZM17.2927 17.1825L17.0615 18.7356L17.1643 22.6183L17.7378 19.6761L17.2927 17.1825Z" fill="#8E45D6" stroke="#8E45D6" stroke-width="0.1" stroke-linecap="round" stroke-linejoin="round"/>
<path d="M17.7377 19.6761L17.1642 22.6183L17.5751 22.9031L20.0747 20.9358L20.1603 18.96L17.7377 19.6761ZM11.814 18.96L11.8824 20.9358L14.3821 22.9031L14.793 22.6183L14.228 19.6761L11.814 18.96Z" fill="#AC5CFB" stroke="#AC5CFB" stroke-width="0.1" stroke-linecap="round" stroke-linejoin="round"/>
<path d="M17.7806 25.6118L17.8063 24.8094L17.5923 24.6195H14.365L14.1681 24.8094L14.1853 25.6118L11.4888 24.3262L12.4304 25.1027L14.3394 26.4401H17.6179L19.5355 25.1027L20.4771 24.3262L17.7806 25.6118Z" fill="#C0AD9E" stroke="#C0AD9E" stroke-width="0.1" stroke-linecap="round" stroke-linejoin="round"/>
<path d="M17.575 22.9029L17.1641 22.6182H14.7929L14.382 22.9029L14.168 24.8097L14.3649 24.6199H17.5921L17.8061 24.8097L17.575 22.9029Z" fill="#161616" stroke="#161616" stroke-width="0.1" stroke-linecap="round" stroke-linejoin="round"/>
<path d="M26.1695 12.8334L26.8971 9.31307L25.81 6.04297L17.575 12.2035L20.7423 14.9042L25.2193 16.2243L26.2123 15.0595L25.7843 14.7489L26.4691 14.119L25.9384 13.7048L26.6232 13.1785L26.1695 12.8334ZM5.06836 9.31307L5.79599 12.8334L5.33373 13.1785L6.01855 13.7048L5.49637 14.119L6.1812 14.7489L5.75318 15.0595L6.73762 16.2243L11.2147 14.9042L14.382 12.2035L6.14696 6.04297L5.06836 9.31307Z" fill="#500F90" stroke="#500F90" stroke-width="0.1" stroke-linecap="round" stroke-linejoin="round"/>
<path d="M25.2193 16.2242L20.7422 14.9041L22.1033 16.9662L20.0745 20.9352L22.7453 20.9007H26.7259L25.2193 16.2242ZM11.2146 14.9041L6.73754 16.2242L5.24805 20.9007H9.22003L11.8823 20.9352L9.86205 16.9662L11.2146 14.9041ZM17.6591 17.1819L18.6749 12.2034L18.8761 8.65723H13.0979L13.2819 12.2034L14.3148 17.1819L14.7842 18.7523L14.7928 22.6177H17.164L17.1811 18.7523L17.6591 17.1819Z" fill="#AC5CFB" stroke="#AC5CFB" stroke-width="0.1" stroke-linecap="round" stroke-linejoin="round"/>
<path d="M17.5555 13.0488H18.1918L16.8674 11.7147C16.3879 11.2315 15.6112 11.2315 15.1317 11.7147L13.8078 13.0488H14.4441L15.4501 12.0352C15.7488 11.7327 16.2374 11.729 16.5409 12.0267C16.5436 12.0293 16.5468 12.0325 16.5495 12.0352L17.5555 13.0488ZM14.4361 9.33868H13.7998L15.1322 10.6814C15.6118 11.1645 16.3884 11.1645 16.8679 10.6814L18.1998 9.33868H17.5635L16.5495 10.3603C16.2508 10.6627 15.7622 10.6665 15.4587 10.3688C15.456 10.3661 15.4528 10.363 15.4501 10.3603L14.4361 9.33868Z" fill="white"/>
</g>
</g>
<defs>
<clipPath id="clip0_2389_1005">
<rect width="32" height="32" fill="white"/>
</clipPath>
<clipPath id="clip1_2389_1005">
<rect width="22" height="20.4058" fill="white" transform="translate(5 6)"/>
</clipPath>
</defs>
</svg>
