<svg width="12" height="10" viewBox="0 0 12 10" fill="none" xmlns="http://www.w3.org/2000/svg">
<path d="M4.21553 3.35163L4.21552 3.35165L4.21888 3.35473C4.70466 3.80065 5.34013 4.048 5.9995 4.048C6.65891 4.048 7.29424 3.80062 7.78007 3.35478L7.78008 3.35478L7.78239 3.35263L10.2895 1.02246H10.497L7.9455 3.41377C7.41385 3.89341 6.72331 4.1589 6.0073 4.1589C5.29117 4.1589 4.60064 3.8934 4.06909 3.41378L1.5176 1.02246H1.7242L4.21553 3.35163Z" fill="black" stroke="black"/>
<path d="M7.80118 6.70678L7.80121 6.70675L7.79666 6.70258C7.31087 6.25654 6.67538 6.00918 6.016 6.00918C5.35671 6.00918 4.72122 6.25655 4.23544 6.70258L4.23542 6.70257L4.23199 6.70578L1.70946 9.06598H1.50266L4.07176 6.65741C4.5997 6.17184 5.29093 5.90228 6.0082 5.90228C6.72557 5.90228 7.4167 6.17184 7.94471 6.65742L10.5138 9.06598H10.3079L7.80118 6.70678Z" fill="black" stroke="black"/>
<path d="M10.7695 9H1L0.5 9.5H11.5L10.7695 9Z" fill="black" stroke="black" stroke-width="0.25"/>
</svg>
