<svg width="128" height="116" viewBox="0 0 128 116" fill="none" xmlns="http://www.w3.org/2000/svg">
<path d="M119.33 106.32C117.208 104.087 116.432 103.267 112.371 98.9169C111.253 97.7325 109.245 95.6142 107.922 94.2476C105.777 91.9698 101.214 87.141 99.5708 85.3644C98.3387 83.9977 93.1594 78.5084 91.2428 76.4812C90.1704 75.3651 89.0524 74.1351 88.733 73.7935C88.1626 73.1101 86.6567 71.5157 83.8731 68.623C82.9604 67.6891 80.9526 65.5253 79.4011 63.8397C77.8496 62.1542 75.8645 60.0131 74.9747 59.102C74.0848 58.1909 73.3547 57.3482 73.3547 57.2571C73.3547 57.0976 75.4082 54.8427 79.1501 50.8794C79.6977 50.31 81.4317 48.4878 83.0289 46.8706C84.626 45.2306 87.866 41.8595 90.2389 39.354C92.6346 36.8485 96.057 33.2497 97.8823 31.3819C99.7077 29.4914 101.966 27.1453 102.902 26.1431C103.837 25.1409 106.598 22.2254 109.062 19.6744C111.504 17.1233 113.763 14.7544 114.082 14.4128C117.185 11.0645 124.235 3.63906 126.334 1.52077C126.859 0.996885 127.338 0.450227 127.361 0.313563C127.407 0.131344 124.03 0.0630116 115.109 0.0630116H102.788L100.734 2.18131C99.0004 3.98073 97.0381 6.05347 92.9312 10.4495C92.5889 10.8139 90.7408 12.7728 88.8471 14.7772C86.9533 16.7588 84.6488 19.2416 83.7134 20.2666C81.9109 22.271 73.9708 30.767 73.0125 31.7236C72.2139 32.5436 70.7308 34.1608 68.1754 37.0763C66.9661 38.4429 65.5059 40.0374 64.9127 40.6068L63.8631 41.6318L63.0417 40.7207C62.5854 40.2196 60.9654 38.4657 59.4367 36.8485C57.908 35.2085 56.0143 33.1586 55.2157 32.293C54.4171 31.4047 52.4093 29.2636 50.7665 27.5098C49.1237 25.7559 47.2299 23.706 46.5455 22.9543C45.861 22.2026 43.6478 19.8338 41.6399 17.7155C39.6321 15.5744 36.5975 12.34 34.9091 10.5406C33.2207 8.71842 31.5323 6.94179 31.1444 6.55457C30.7793 6.16736 29.6385 4.93738 28.6346 3.82128C27.6307 2.70519 26.4442 1.40688 26.0107 0.928553L25.2121 0.0630116L12.9369 0.0174568C6.16043 -0.028098 0.593226 0.0174568 0.524777 0.131344C0.479144 0.222453 2.9205 2.88741 5.95508 6.05347C12.298 12.6134 13.5529 13.9345 17.1351 17.7155C18.5725 19.2188 20.9226 21.6788 22.3601 23.1821C25.8966 26.872 31.0075 32.3158 34.4528 36.0513C36.0271 37.7368 37.7611 39.6046 38.3316 40.174C38.902 40.7435 39.8146 41.7229 40.3622 42.3379C40.9098 42.9529 42.872 45.0484 44.6973 46.9845C50.6068 53.2255 51.2456 53.9088 52.2724 55.0704C52.82 55.6854 53.5045 56.3915 53.8011 56.6193C54.0749 56.8471 54.303 57.1432 54.303 57.2799C54.303 57.4165 53.7098 58.1682 53.0025 58.9198C49.831 62.2909 44.7886 67.6208 44.2638 68.1447C43.9672 68.4863 41.8681 70.7413 39.6093 73.1785C37.3733 75.6157 34.9091 78.2806 34.1333 79.1006C33.3576 79.9206 32.1255 81.2417 31.3954 82.0617C30.6424 82.8817 29.2963 84.3166 28.4064 85.2505C27.5166 86.1844 25.4631 88.3938 23.8431 90.1476C22.2232 91.9015 19.3939 94.9309 17.5686 96.867C14.0777 100.557 9.67415 105.272 5.24777 110.078C3.81034 111.65 2.03066 113.54 1.32335 114.292C0.593226 115.043 0 115.727 0 115.818C0 115.932 28.7943 116 64 116C99.2057 116 128 115.932 128 115.863C128 115.772 127.566 115.226 127.042 114.656C124.669 112.037 121.315 108.415 119.33 106.32ZM63.9087 99.1447C49.831 99.1447 38.3316 99.0764 38.3316 98.9625C38.3316 98.8714 39.016 98.0742 39.8374 97.2086C40.6816 96.3203 41.9365 94.9537 42.621 94.1337C43.3283 93.3137 44.6745 91.8332 45.6328 90.831C46.5683 89.8288 48.5305 87.7332 49.9679 86.1616C51.4053 84.6127 52.7971 83.1322 53.0481 82.8817C53.2991 82.6083 54.3258 81.5378 55.3298 80.4672C56.3337 79.3967 58.5469 77.0506 60.2353 75.2512C61.9237 73.4746 63.4068 71.8346 63.5209 71.6296C63.6806 71.3563 63.9315 71.493 64.867 72.5179C67.7875 75.6612 71.8717 79.9889 72.8984 81.0367C73.8567 82.0389 76.3209 84.6811 78.4656 87.0499C78.7622 87.3688 80.3594 89.0771 82.0021 90.831C83.6449 92.5848 85.5159 94.5892 86.1547 95.2726C86.7708 95.9559 87.7519 97.0264 88.3223 97.6186C88.8699 98.2336 89.3718 98.8258 89.3946 98.9397C89.4403 99.0536 79.4467 99.1447 63.9087 99.1447Z" fill="black"/>
</svg>
