<svg width="387" height="387" viewBox="0 0 387 387" fill="none" xmlns="http://www.w3.org/2000/svg">
<rect width="387" height="387" fill="white"/>
<g clip-path="url(#clip0_2005_13)">
<path d="M113.546 94.9415H118.967V81H113.546C107.798 80.9949 102.105 82.1234 96.7931 84.3207C91.4815 86.5181 86.6553 89.7413 82.5907 93.8059C78.5262 97.8705 75.303 102.697 73.1056 108.008C70.9082 113.32 69.7798 119.013 69.7849 124.761V156.516C69.7965 163.24 67.2357 169.714 62.6273 174.61C58.019 179.507 51.7123 182.455 45 182.85L45.3873 189.821L45 196.792C51.7123 197.187 58.019 200.136 62.6273 205.032C67.2357 209.928 69.7965 216.402 69.7849 223.126V259.722C69.7643 271.866 74.566 283.521 83.1348 292.126C91.7035 300.731 103.338 305.582 115.482 305.613V291.671C107.061 291.666 98.9872 288.319 93.033 282.365C87.0788 276.411 83.7315 268.336 83.7264 259.916V223.126C83.7322 216.558 82.1293 210.088 79.0577 204.282C75.986 198.477 71.5392 193.512 66.1059 189.821C71.5237 186.115 75.9588 181.147 79.0285 175.344C82.0983 169.542 83.7106 163.081 83.7264 156.516V124.761C83.762 116.863 86.9151 109.299 92.4996 103.715C98.0841 98.1303 105.648 94.9772 113.546 94.9415Z" fill="black"/>
<path d="M274.648 94.9415H269.227V81H274.648C286.227 81.0308 297.32 85.6573 305.489 93.863C313.659 102.069 318.236 113.182 318.215 124.761V156.516C318.204 163.24 320.765 169.714 325.373 174.61C329.981 179.507 336.288 182.455 343 182.85L342.613 189.821L343 196.792C336.288 197.187 329.981 200.135 325.373 205.032C320.765 209.928 318.204 216.402 318.215 223.126V259.722C318.236 271.866 313.434 283.521 304.865 292.126C296.297 300.731 284.662 305.582 272.518 305.613V291.671C280.939 291.666 289.013 288.319 294.967 282.365C300.921 276.41 304.269 268.336 304.274 259.916V223.126C304.268 216.557 305.871 210.088 308.943 204.282C312.014 198.476 316.461 193.511 321.894 189.821C316.477 186.115 312.041 181.147 308.972 175.344C305.902 169.542 304.29 163.081 304.274 156.516V124.761C304.294 120.855 303.543 116.984 302.064 113.37C300.585 109.756 298.407 106.469 295.654 103.698C292.902 100.928 289.629 98.7282 286.024 97.2255C282.42 95.7227 278.554 94.9466 274.648 94.9415Z" fill="black"/>
<path d="M244.828 137.153H265.547L222.367 177.622C214.62 184.632 204.544 188.514 194.097 188.514C183.649 188.514 173.573 184.632 165.826 177.622L122.646 137.153H143.365L176.089 167.747C180.976 172.232 187.367 174.72 194 174.72C200.633 174.72 207.024 172.232 211.911 167.747L244.828 137.153Z" fill="black"/>
<path d="M143.172 249.459H122.453L165.827 208.796C173.531 201.7 183.622 197.761 194.097 197.761C204.571 197.761 214.663 201.7 222.367 208.796L265.741 249.459H245.022L212.105 218.478C207.218 213.993 200.826 211.505 194.194 211.505C187.561 211.505 181.169 213.993 176.283 218.478L143.172 249.459Z" fill="black"/>
</g>
<defs>
<clipPath id="clip0_2005_13">
<rect width="298" height="225" fill="white" transform="translate(45 81)"/>
</clipPath>
</defs>
</svg>
