<svg width="128" height="128" viewBox="0 0 128 128" fill="none" xmlns="http://www.w3.org/2000/svg">
<path d="M0 0H128V128H0V0Z" fill="black"/>
<path d="M101.175 96.5742C99.749 95.0925 99.2278 94.5482 96.4991 91.6604C95.7479 90.8742 94.3989 89.4681 93.5098 88.5609C92.0688 87.049 89.0028 83.8436 87.8991 82.6643C87.0713 81.7571 83.5914 78.1133 82.3037 76.7677C81.5832 76.0268 80.8321 75.2104 80.6175 74.9836C80.2342 74.53 79.2225 73.4716 77.3522 71.5515C76.739 70.9316 75.39 69.4952 74.3476 68.3764C73.3052 67.2575 71.9715 65.8363 71.3736 65.2315C70.7758 64.6268 70.2852 64.0673 70.2852 64.0069C70.2852 63.901 71.6649 62.4042 74.179 59.7734C74.5469 59.3954 75.7119 58.1858 76.785 57.1124C77.8581 56.0238 80.0349 53.7861 81.6292 52.1229C83.2389 50.4598 85.5383 48.0709 86.7647 46.8311C87.9911 45.5762 89.5087 44.0189 90.1373 43.3536C90.7658 42.6884 92.6207 40.7531 94.2763 39.0597C95.9166 37.3663 97.4342 35.7939 97.6488 35.5671C99.7337 33.3445 104.471 28.4156 105.881 27.0095C106.234 26.6617 106.555 26.2989 106.571 26.2081C106.601 26.0872 104.333 26.0418 98.3387 26.0418H90.0606L88.6809 27.4479C87.5159 28.6424 86.1975 30.0182 83.4381 32.9363C83.2082 33.1782 81.9665 34.4785 80.6941 35.809C79.4217 37.1244 77.8734 38.7724 77.2449 39.4528C76.0339 40.7833 70.6991 46.4229 70.0553 47.0579C69.5187 47.6022 68.5223 48.6757 66.8053 50.611C65.9929 51.5182 65.0118 52.5765 64.6132 52.9545L63.908 53.6349L63.3561 53.0301C63.0496 52.6975 61.9611 51.5333 60.934 50.4598C59.907 49.3712 58.6346 48.0104 58.098 47.4359C57.5615 46.8462 56.2125 45.425 55.1087 44.2608C54.005 43.0966 52.7326 41.7359 52.2727 41.2369C51.8128 40.738 50.3258 39.1655 48.9768 37.7594C47.6278 36.3382 45.5889 34.1912 44.4545 32.9968C43.3201 31.7872 42.1857 30.6079 41.9251 30.3509C41.6799 30.0938 40.9134 29.2774 40.2389 28.5365C39.5644 27.7957 38.7672 26.9339 38.4759 26.6164L37.9394 26.0418L29.692 26.0116C25.139 25.9813 21.3986 26.0116 21.3526 26.0872C21.3219 26.1477 22.9622 27.9166 25.0011 30.0183C29.2627 34.3727 30.1059 35.2496 32.5127 37.7594C33.4784 38.7573 35.0574 40.3902 36.0232 41.3881C38.3993 43.8375 41.8332 47.451 44.1479 49.9306C45.2057 51.0495 46.3708 52.2892 46.754 52.6672C47.1373 53.0452 47.7504 53.6954 48.1184 54.1036C48.4863 54.5118 49.8046 55.9028 51.031 57.188C55.0014 61.3307 55.4307 61.7843 56.1205 62.5554C56.4884 62.9636 56.9483 63.4323 57.1476 63.5835C57.3316 63.7347 57.4848 63.9313 57.4848 64.022C57.4848 64.1127 57.0863 64.6116 56.611 65.1106C54.4802 67.3483 51.0923 70.8862 50.7397 71.234C50.5405 71.4608 49.1301 72.9576 47.6125 74.5754C46.1102 76.1932 44.4545 77.9621 43.9333 78.5064C43.4121 79.0507 42.5843 79.9277 42.0938 80.472C41.5879 81.0163 40.6834 81.9688 40.0856 82.5887C39.4877 83.2086 38.108 84.6752 37.0196 85.8394C35.9312 87.0036 34.0303 89.0145 32.8039 90.2996C30.4585 92.749 27.4998 95.8787 24.5258 99.0689C23.5601 100.112 22.3643 101.367 21.8891 101.866C21.3986 102.365 21 102.819 21 102.879C21 102.955 40.3462 103 64 103C87.6538 103 107 102.955 107 102.909C107 102.849 106.709 102.486 106.356 102.108C104.762 100.369 102.508 97.9652 101.175 96.5742ZM63.9387 91.8116C54.4802 91.8116 46.754 91.7662 46.754 91.6906C46.754 91.6301 47.2139 91.101 47.7658 90.5264C48.333 89.9368 49.1761 89.0296 49.636 88.4853C50.1112 87.941 51.0157 86.9582 51.6595 86.293C52.2881 85.6277 53.6064 84.2367 54.5722 83.1935C55.538 82.1654 56.4731 81.1826 56.6417 81.0163C56.8103 80.8348 57.5002 80.1242 58.1747 79.4136C58.8492 78.703 60.3362 77.1457 61.4706 75.9512C62.605 74.7719 63.6014 73.6833 63.6781 73.5472C63.7854 73.3658 63.954 73.4565 64.5825 74.1369C66.5447 76.2234 69.2888 79.0961 69.9786 79.7916C70.6225 80.4569 72.2781 82.2107 73.7191 83.7831C73.9184 83.9948 74.9914 85.1288 76.0952 86.293C77.1989 87.4572 78.456 88.7877 78.8852 89.2413C79.2991 89.6949 79.9583 90.4055 80.3415 90.7986C80.7094 91.2068 81.0467 91.5999 81.062 91.6755C81.0927 91.7511 74.3783 91.8116 63.9387 91.8116Z" fill="white"/>
</svg>
