<svg width="128" height="128" viewBox="0 0 128 128" fill="none" xmlns="http://www.w3.org/2000/svg">
<path d="M46.754 91.6906C46.754 91.7662 54.4802 91.8116 63.9387 91.8116C74.3783 91.8116 81.0927 91.7511 81.062 91.6755C81.0467 91.5999 80.7094 91.2068 80.3415 90.7986C79.9583 90.4055 79.2991 89.6949 78.8852 89.2413C78.7752 89.1251 78.6109 88.9513 78.4087 88.7375C77.8219 88.1168 76.9161 87.1589 76.0952 86.293C74.9914 85.1288 73.9184 83.9948 73.7191 83.7831C72.2781 82.2107 70.6225 80.4568 69.9786 79.7916C69.2888 79.0961 66.5447 76.2234 64.5825 74.1369C63.954 73.4565 63.7854 73.3658 63.6781 73.5472C63.6014 73.6833 62.605 74.7719 61.4706 75.9512C60.853 76.6016 60.1308 77.3594 59.4922 78.0297C58.9578 78.5904 58.482 79.0899 58.1747 79.4136C57.8054 79.8027 57.4314 80.1918 57.141 80.494C56.901 80.7438 56.718 80.9342 56.6417 81.0163C56.4731 81.1826 55.538 82.1654 54.5722 83.1935C53.7346 84.0983 52.6317 85.2647 51.9438 85.9923C51.8385 86.1036 51.7429 86.2047 51.6595 86.293C51.0157 86.9582 50.1112 87.941 49.636 88.4853C49.1761 89.0296 48.333 89.9368 47.7658 90.5264C47.2139 91.101 46.754 91.6301 46.754 91.6906Z" fill="white"/>
<path fill-rule="evenodd" clip-rule="evenodd" d="M128 0H0V128H128V0ZM96.4991 91.6604C99.2278 94.5482 99.749 95.0925 101.175 96.5742C102.508 97.9652 104.762 100.369 106.356 102.108C106.709 102.486 107 102.849 107 102.909C107 102.955 87.6538 103 64 103C40.3462 103 21 102.955 21 102.879C21 102.819 21.3986 102.365 21.8891 101.866L21.9127 101.841C22.4029 101.327 23.5757 100.095 24.5258 99.0689C27.4998 95.8787 30.4585 92.749 32.8039 90.2996C34.0303 89.0145 35.9312 87.0036 37.0196 85.8394C38.108 84.6752 39.4877 83.2086 40.0856 82.5887C40.6834 81.9688 41.5879 81.0163 42.0938 80.472C42.5843 79.9277 43.4121 79.0507 43.9333 78.5064C44.4545 77.9621 46.1102 76.1932 47.6125 74.5754C47.9989 74.1634 48.3784 73.7593 48.7327 73.3821C49.7698 72.2777 50.5912 71.403 50.7397 71.234C51.0923 70.8862 54.4802 67.3483 56.611 65.1106C57.0863 64.6116 57.4848 64.1127 57.4848 64.022C57.4848 63.9313 57.3316 63.7347 57.1476 63.5835C56.9483 63.4323 56.4884 62.9636 56.1205 62.5554C55.4307 61.7843 55.0014 61.3307 51.031 57.188C49.8046 55.9028 48.4863 54.5118 48.1184 54.1036C47.7504 53.6954 47.1373 53.0452 46.754 52.6672C46.4389 52.3564 45.595 51.4628 44.7169 50.5329C44.5272 50.332 44.3359 50.1294 44.1479 49.9306C41.8332 47.451 38.3993 43.8375 36.0232 41.3881C35.5403 40.8892 34.9041 40.2315 34.2679 39.5738C33.6317 38.9161 32.9955 38.2584 32.5127 37.7594C30.1059 35.2496 29.2627 34.3727 25.0011 30.0183C22.9622 27.9166 21.3219 26.1477 21.3526 26.0872C21.3986 26.0116 25.139 25.9813 29.692 26.0116L37.9394 26.0418L38.4759 26.6164C38.5584 26.7063 38.6814 26.8398 38.8308 27.0019C39.2088 27.4122 39.7553 28.0055 40.2389 28.5365C40.9134 29.2774 41.6799 30.0938 41.9251 30.3509C42.1857 30.6079 43.3201 31.7872 44.4545 32.9968C45.5889 34.1912 47.6278 36.3382 48.9768 37.7594C50.3258 39.1655 51.8128 40.738 52.2727 41.2369C52.7326 41.7359 54.005 43.0966 55.1087 44.2608L55.3158 44.4792C56.376 45.5974 57.5946 46.8827 58.098 47.4359C58.6346 48.0104 59.907 49.3712 60.934 50.4598C61.9611 51.5333 63.0496 52.6975 63.3561 53.0301L63.908 53.6349L64.6132 52.9545C65.0118 52.5765 65.9929 51.5182 66.8053 50.611C68.5223 48.6757 69.5187 47.6022 70.0553 47.0579C70.6991 46.4229 76.0339 40.7833 77.2449 39.4528C77.8734 38.7724 79.4217 37.1244 80.6941 35.809C81.9665 34.4785 83.2082 33.1782 83.4381 32.9363C86.1975 30.0183 87.5159 28.6424 88.6809 27.4479L90.0606 26.0418H98.3387C104.333 26.0418 106.601 26.0872 106.571 26.2081C106.555 26.2989 106.234 26.6617 105.881 27.0095C104.471 28.4156 99.7337 33.3445 97.6488 35.5671C97.4342 35.7939 95.9166 37.3663 94.2763 39.0597C92.6207 40.7531 90.7658 42.6884 90.1373 43.3536C89.5087 44.0189 87.9911 45.5762 86.7647 46.8311C85.8255 47.7806 84.2571 49.4039 82.851 50.8591C82.421 51.3041 82.0062 51.7334 81.6292 52.1229C80.0349 53.7861 77.8581 56.0238 76.785 57.1124C75.9054 57.9923 74.964 58.9637 74.4505 59.4935C74.3375 59.6101 74.2453 59.7052 74.179 59.7734C71.6649 62.4042 70.2852 63.901 70.2852 64.0069C70.2852 64.0673 70.7758 64.6268 71.3736 65.2315C71.9715 65.8363 73.3052 67.2575 74.3476 68.3764C75.39 69.4952 76.739 70.9316 77.3522 71.5515C79.2225 73.4716 80.2342 74.53 80.6175 74.9836C80.6705 75.0397 80.7564 75.1318 80.8665 75.25C81.2017 75.6096 81.7614 76.21 82.3037 76.7677C83.5914 78.1133 87.0713 81.7571 87.8991 82.6643C88.7441 83.5671 90.7392 85.6574 92.2747 87.2663C92.7449 87.7589 93.172 88.2065 93.5098 88.5609C94.3989 89.4681 95.7479 90.8742 96.4991 91.6604Z" fill="white"/>
</svg>
