<svg width="60" height="60" viewBox="0 0 60 60" fill="none" xmlns="http://www.w3.org/2000/svg">
<rect width="60" height="60" rx="30" fill="black"/>
<path fill-rule="evenodd" clip-rule="evenodd" d="M12 30.4727C12 29.8755 12 29.2783 12 28.6811C13.557 28.411 14.491 27.4863 14.8019 25.907C14.8054 24.1138 14.8432 22.3222 14.9151 20.5322C15.288 18.5716 16.3729 17.1942 18.1698 16.3999C19.0472 16.0676 19.9528 15.9424 20.8868 16.0243C20.8868 16.6215 20.8868 17.2187 20.8868 17.8159C19.1826 17.6504 17.8901 18.3054 17.0094 19.7809C16.7971 20.2193 16.6651 20.6816 16.6132 21.1679C16.5943 22.8054 16.5755 24.4429 16.5566 26.0804C16.3368 27.5415 15.6482 28.707 14.4906 29.5769C15.6482 30.4468 16.3368 31.6123 16.5566 33.0734C16.5755 34.942 16.5943 36.8108 16.6132 38.6794C16.8816 40.4754 17.8722 41.6216 19.5849 42.1181C19.865 42.1788 20.148 42.2077 20.434 42.2048C20.434 42.802 20.434 43.3992 20.434 43.9964C18.3785 43.9628 16.7842 43.0573 15.6509 41.2801C15.1945 40.5178 14.9304 39.6893 14.8585 38.795C14.8673 36.9232 14.8202 35.0641 14.717 33.2179C14.7597 32.9941 14.7314 32.7726 14.6321 32.5533C14.1441 31.3949 13.2667 30.7014 12 30.4727Z" fill="white"/>
<path fill-rule="evenodd" clip-rule="evenodd" d="M48 28.6811C48 29.2783 48 29.8755 48 30.4727C46.4689 30.7356 45.5349 31.6411 45.1981 33.189C45.1945 35.1939 45.1568 37.1974 45.0849 39.1995C44.514 41.9213 42.9008 43.5106 40.2453 43.9675C40.0007 43.9964 39.7554 44.006 39.5094 43.9964C39.5094 43.3992 39.5094 42.802 39.5094 42.2048C41.2557 42.1456 42.4726 41.2979 43.1604 39.6619C43.2716 39.3232 43.347 38.9764 43.3868 38.6216C43.3891 36.6354 43.4269 34.6512 43.5 32.6688C43.7819 31.3695 44.4517 30.3388 45.5094 29.5769C44.3395 28.7399 43.6508 27.5937 43.4434 26.1382C43.4245 24.4814 43.4056 22.8247 43.3868 21.1679C43.1309 19.3454 42.1026 18.2377 40.3019 17.8448C39.9105 17.7979 39.5237 17.8075 39.1415 17.8737C39.1132 17.2575 39.1037 16.641 39.1132 16.0243C41.654 15.8615 43.5124 16.9211 44.6887 19.2029C44.8781 19.6483 45.0102 20.1106 45.0849 20.59C45.1568 22.38 45.1945 24.1716 45.1981 25.9648C45.5349 27.5127 46.4689 28.4181 48 28.6811Z" fill="white"/>
<path fill-rule="evenodd" clip-rule="evenodd" d="M27.9057 29.0278C27.3788 28.7507 26.8882 28.4136 26.434 28.0165C24.7326 26.337 23.0156 24.6802 21.283 23.0462C22.1509 23.0076 23.0189 23.0076 23.8868 23.0462C25.2812 24.335 26.6586 25.6449 28.0189 26.9762C28.9316 27.6521 29.9316 27.8255 31.0189 27.4963C31.2988 27.3919 31.5629 27.2571 31.8113 27.0918C33.2453 25.7433 34.6793 24.3947 36.1132 23.0462C36.9817 22.9981 37.8497 23.0077 38.717 23.0751C37.2456 24.4619 35.7927 25.8682 34.3585 27.294C33.8551 27.7794 33.3267 28.2321 32.7736 28.6522C31.1898 29.5458 29.5671 29.671 27.9057 29.0278Z" fill="white"/>
<path fill-rule="evenodd" clip-rule="evenodd" d="M27.9033 29.0278C27.8687 29.0634 27.8687 29.0634 27.9033 29.0278Z" fill="white"/>
<path fill-rule="evenodd" clip-rule="evenodd" d="M29.4906 30.5305C30.7994 30.4455 31.9881 30.7826 33.0566 31.5419C34.9793 33.3315 36.8849 35.1424 38.7736 36.9745C37.8868 37.013 37 37.013 36.1132 36.9745C34.7359 35.6452 33.3585 34.316 31.9811 32.9867C30.6991 32.1313 29.4255 32.1024 28.1604 32.9C26.7173 34.2386 25.2928 35.5967 23.8868 36.9745C23 37.013 22.1132 37.013 21.2264 36.9745C23.0377 35.2407 24.8491 33.5069 26.6604 31.773C27.4938 31.0873 28.4372 30.6731 29.4906 30.5305Z" fill="white"/>
</svg>
