<svg width="24" height="24" viewBox="0 0 24 24" fill="none" xmlns="http://www.w3.org/2000/svg">
<path d="M3.96948 8.03073C3.89974 7.96107 3.84443 7.87836 3.80668 7.78731C3.76894 7.69626 3.74951 7.59866 3.74951 7.5001C3.74951 7.40154 3.76894 7.30395 3.80668 7.2129C3.84443 7.12185 3.89974 7.03913 3.96948 6.96948L6.96948 3.96948C7.07437 3.86447 7.20806 3.79294 7.35362 3.76396C7.49919 3.73497 7.65008 3.74982 7.78719 3.80664C7.92431 3.86345 8.04149 3.95967 8.12389 4.08312C8.2063 4.20656 8.25022 4.35168 8.2501 4.5001V6.7501H19.5001C19.699 6.7501 19.8898 6.82912 20.0304 6.96977C20.1711 7.11042 20.2501 7.30119 20.2501 7.5001C20.2501 7.69901 20.1711 7.88978 20.0304 8.03043C19.8898 8.17108 19.699 8.2501 19.5001 8.2501H8.2501V10.5001C8.25022 10.6485 8.2063 10.7936 8.12389 10.9171C8.04149 11.0405 7.92431 11.1368 7.78719 11.1936C7.65008 11.2504 7.49919 11.2652 7.35362 11.2362C7.20806 11.2073 7.07437 11.1357 6.96948 11.0307L3.96948 8.03073ZM20.0307 15.9695L17.0307 12.9695C16.9258 12.8645 16.7921 12.7929 16.6466 12.764C16.501 12.735 16.3501 12.7498 16.213 12.8066C16.0759 12.8634 15.9587 12.9597 15.8763 13.0831C15.7939 13.2066 15.75 13.3517 15.7501 13.5001V15.7501H4.5001C4.30119 15.7501 4.11042 15.8291 3.96977 15.9698C3.82912 16.1104 3.7501 16.3012 3.7501 16.5001C3.7501 16.699 3.82912 16.8898 3.96977 17.0304C4.11042 17.1711 4.30119 17.2501 4.5001 17.2501H15.7501V19.5001C15.75 19.6485 15.7939 19.7936 15.8763 19.9171C15.9587 20.0405 16.0759 20.1368 16.213 20.1936C16.3501 20.2504 16.501 20.2652 16.6466 20.2362C16.7921 20.2073 16.9258 20.1357 17.0307 20.0307L20.0307 17.0307C20.1005 16.9611 20.1558 16.8784 20.1935 16.7873C20.2313 16.6963 20.2507 16.5987 20.2507 16.5001C20.2507 16.4015 20.2313 16.3039 20.1935 16.2129C20.1558 16.1218 20.1005 16.0391 20.0307 15.9695Z" fill="#7F7F87"/>
</svg>
